<svg width="390" height="437" viewBox="0 0 390 437" fill="none" xmlns="http://www.w3.org/2000/svg">
<g filter="url(#filter0_d_1_6242)">
<rect x="80" y="80" width="190" height="237" rx="10" fill="white" shape-rendering="crispEdges"/>
<circle cx="175" cy="140" r="28" fill="#EDF8FF"/>
<path d="M172.655 152.542C172.422 152.542 172.235 152.495 172.095 152.437C171.628 152.262 170.835 151.69 170.835 149.882V142.357H168.105C166.542 142.357 165.982 141.622 165.783 141.19C165.585 140.747 165.41 139.848 166.437 138.67L175.268 128.637C176.458 127.283 177.427 127.377 177.893 127.552C178.36 127.727 179.153 128.298 179.153 130.107V137.632H181.883C183.447 137.632 184.007 138.367 184.205 138.798C184.403 139.242 184.578 140.14 183.552 141.318L174.72 151.352C173.892 152.297 173.168 152.542 172.655 152.542ZM177.252 129.197C177.217 129.243 176.972 129.36 176.587 129.803L167.755 139.837C167.428 140.21 167.382 140.443 167.382 140.49C167.405 140.502 167.615 140.618 168.105 140.618H171.71C172.188 140.618 172.585 141.015 172.585 141.493V149.893C172.585 150.477 172.69 150.733 172.737 150.803C172.772 150.757 173.017 150.64 173.402 150.197L182.233 140.163C182.56 139.79 182.607 139.557 182.607 139.51C182.583 139.498 182.373 139.382 181.883 139.382H178.278C177.8 139.382 177.403 138.985 177.403 138.507V130.107C177.415 129.523 177.298 129.278 177.252 129.197Z" fill="#42A4D9"/>
<path d="M134.604 204.944C136.652 203.237 138.284 201.819 139.5 200.688C140.716 199.536 141.729 198.341 142.54 197.104C143.351 195.867 143.756 194.651 143.756 193.456C143.756 192.368 143.5 191.515 142.988 190.896C142.476 190.277 141.687 189.968 140.62 189.968C139.553 189.968 138.732 190.331 138.156 191.056C137.58 191.76 137.281 192.731 137.26 193.968H132.908C132.993 191.408 133.751 189.467 135.18 188.144C136.631 186.821 138.465 186.16 140.684 186.16C143.116 186.16 144.983 186.811 146.284 188.112C147.585 189.392 148.236 191.088 148.236 193.2C148.236 194.864 147.788 196.453 146.892 197.968C145.996 199.483 144.972 200.805 143.82 201.936C142.668 203.045 141.164 204.389 139.308 205.968H148.748V209.68H132.94V206.352L134.604 204.944ZM151.571 198.032C151.571 194.341 152.232 191.451 153.555 189.36C154.899 187.269 157.118 186.224 160.211 186.224C163.304 186.224 165.512 187.269 166.835 189.36C168.179 191.451 168.851 194.341 168.851 198.032C168.851 201.744 168.179 204.656 166.835 206.768C165.512 208.88 163.304 209.936 160.211 209.936C157.118 209.936 154.899 208.88 153.555 206.768C152.232 204.656 151.571 201.744 151.571 198.032ZM164.435 198.032C164.435 196.453 164.328 195.131 164.115 194.064C163.923 192.976 163.518 192.091 162.899 191.408C162.302 190.725 161.406 190.384 160.211 190.384C159.016 190.384 158.11 190.725 157.491 191.408C156.894 192.091 156.488 192.976 156.275 194.064C156.083 195.131 155.987 196.453 155.987 198.032C155.987 199.653 156.083 201.019 156.275 202.128C156.467 203.216 156.872 204.101 157.491 204.784C158.11 205.445 159.016 205.776 160.211 205.776C161.406 205.776 162.312 205.445 162.931 204.784C163.55 204.101 163.955 203.216 164.147 202.128C164.339 201.019 164.435 199.653 164.435 198.032ZM172.259 198.032C172.259 194.341 172.92 191.451 174.243 189.36C175.587 187.269 177.805 186.224 180.899 186.224C183.992 186.224 186.2 187.269 187.523 189.36C188.867 191.451 189.539 194.341 189.539 198.032C189.539 201.744 188.867 204.656 187.523 206.768C186.2 208.88 183.992 209.936 180.899 209.936C177.805 209.936 175.587 208.88 174.243 206.768C172.92 204.656 172.259 201.744 172.259 198.032ZM185.123 198.032C185.123 196.453 185.016 195.131 184.803 194.064C184.611 192.976 184.205 192.091 183.587 191.408C182.989 190.725 182.093 190.384 180.899 190.384C179.704 190.384 178.797 190.725 178.179 191.408C177.581 192.091 177.176 192.976 176.963 194.064C176.771 195.131 176.675 196.453 176.675 198.032C176.675 199.653 176.771 201.019 176.963 202.128C177.155 203.216 177.56 204.101 178.179 204.784C178.797 205.445 179.704 205.776 180.899 205.776C182.093 205.776 183 205.445 183.619 204.784C184.237 204.101 184.643 203.216 184.835 202.128C185.027 201.019 185.123 199.653 185.123 198.032ZM192.434 192.4C192.434 190.779 192.903 189.509 193.842 188.592C194.802 187.675 196.029 187.216 197.522 187.216C199.015 187.216 200.231 187.675 201.17 188.592C202.13 189.509 202.61 190.779 202.61 192.4C202.61 194.043 202.13 195.323 201.17 196.24C200.231 197.157 199.015 197.616 197.522 197.616C196.029 197.616 194.802 197.157 193.842 196.24C192.903 195.323 192.434 194.043 192.434 192.4ZM212.978 187.6L200.402 210H196.05L208.594 187.6H212.978ZM197.49 189.904C196.317 189.904 195.73 190.736 195.73 192.4C195.73 194.085 196.317 194.928 197.49 194.928C198.066 194.928 198.514 194.725 198.834 194.32C199.154 193.893 199.314 193.253 199.314 192.4C199.314 190.736 198.706 189.904 197.49 189.904ZM206.482 205.168C206.482 203.525 206.951 202.256 207.89 201.36C208.85 200.443 210.077 199.984 211.57 199.984C213.063 199.984 214.269 200.443 215.186 201.36C216.125 202.256 216.594 203.525 216.594 205.168C216.594 206.811 216.125 208.091 215.186 209.008C214.269 209.925 213.063 210.384 211.57 210.384C210.055 210.384 208.829 209.925 207.89 209.008C206.951 208.091 206.482 206.811 206.482 205.168ZM211.538 202.672C210.322 202.672 209.714 203.504 209.714 205.168C209.714 206.853 210.322 207.696 211.538 207.696C212.733 207.696 213.33 206.853 213.33 205.168C213.33 203.504 212.733 202.672 211.538 202.672Z" fill="#42A4D9"/>
<path opacity="0.5" d="M125.593 235.544V248H123.955V238.712L119.815 248H118.663L114.505 238.694V248H112.867V235.544H114.631L119.239 245.84L123.847 235.544H125.593ZM132.673 248.162C131.749 248.162 130.909 247.952 130.153 247.532C129.409 247.112 128.821 246.518 128.389 245.75C127.969 244.97 127.759 244.07 127.759 243.05C127.759 242.042 127.975 241.154 128.407 240.386C128.851 239.606 129.451 239.012 130.207 238.604C130.963 238.184 131.809 237.974 132.745 237.974C133.681 237.974 134.527 238.184 135.283 238.604C136.039 239.012 136.633 239.6 137.065 240.368C137.509 241.136 137.731 242.03 137.731 243.05C137.731 244.07 137.503 244.97 137.047 245.75C136.603 246.518 135.997 247.112 135.229 247.532C134.461 247.952 133.609 248.162 132.673 248.162ZM132.673 246.722C133.261 246.722 133.813 246.584 134.329 246.308C134.845 246.032 135.259 245.618 135.571 245.066C135.895 244.514 136.057 243.842 136.057 243.05C136.057 242.258 135.901 241.586 135.589 241.034C135.277 240.482 134.869 240.074 134.365 239.81C133.861 239.534 133.315 239.396 132.727 239.396C132.127 239.396 131.575 239.534 131.071 239.81C130.579 240.074 130.183 240.482 129.883 241.034C129.583 241.586 129.433 242.258 129.433 243.05C129.433 243.854 129.577 244.532 129.865 245.084C130.165 245.636 130.561 246.05 131.053 246.326C131.545 246.59 132.085 246.722 132.673 246.722ZM141.523 239.738C141.811 239.174 142.219 238.736 142.747 238.424C143.287 238.112 143.941 237.956 144.709 237.956V239.648H144.277C142.441 239.648 141.523 240.644 141.523 242.636V248H139.885V238.136H141.523V239.738ZM155.6 242.69C155.6 243.002 155.582 243.332 155.546 243.68H147.662C147.722 244.652 148.052 245.414 148.652 245.966C149.264 246.506 150.002 246.776 150.866 246.776C151.574 246.776 152.162 246.614 152.63 246.29C153.11 245.954 153.446 245.51 153.638 244.958H155.402C155.138 245.906 154.61 246.68 153.818 247.28C153.026 247.868 152.042 248.162 150.866 248.162C149.93 248.162 149.09 247.952 148.346 247.532C147.614 247.112 147.038 246.518 146.618 245.75C146.198 244.97 145.988 244.07 145.988 243.05C145.988 242.03 146.192 241.136 146.6 240.368C147.008 239.6 147.578 239.012 148.31 238.604C149.054 238.184 149.906 237.974 150.866 237.974C151.802 237.974 152.63 238.178 153.35 238.586C154.07 238.994 154.622 239.558 155.006 240.278C155.402 240.986 155.6 241.79 155.6 242.69ZM153.908 242.348C153.908 241.724 153.77 241.19 153.494 240.746C153.218 240.29 152.84 239.948 152.36 239.72C151.892 239.48 151.37 239.36 150.794 239.36C149.966 239.36 149.258 239.624 148.67 240.152C148.094 240.68 147.764 241.412 147.68 242.348H153.908ZM171.561 242.69C171.561 243.002 171.543 243.332 171.507 243.68H163.623C163.683 244.652 164.013 245.414 164.613 245.966C165.225 246.506 165.963 246.776 166.827 246.776C167.535 246.776 168.123 246.614 168.591 246.29C169.071 245.954 169.407 245.51 169.599 244.958H171.363C171.099 245.906 170.571 246.68 169.779 247.28C168.987 247.868 168.003 248.162 166.827 248.162C165.891 248.162 165.051 247.952 164.307 247.532C163.575 247.112 162.999 246.518 162.579 245.75C162.159 244.97 161.949 244.07 161.949 243.05C161.949 242.03 162.153 241.136 162.561 240.368C162.969 239.6 163.539 239.012 164.271 238.604C165.015 238.184 165.867 237.974 166.827 237.974C167.763 237.974 168.591 238.178 169.311 238.586C170.031 238.994 170.583 239.558 170.967 240.278C171.363 240.986 171.561 241.79 171.561 242.69ZM169.869 242.348C169.869 241.724 169.731 241.19 169.455 240.746C169.179 240.29 168.801 239.948 168.321 239.72C167.853 239.48 167.331 239.36 166.755 239.36C165.927 239.36 165.219 239.624 164.631 240.152C164.055 240.68 163.725 241.412 163.641 242.348H169.869ZM177.737 239.486H175.667V248H174.029V239.486H172.751V238.136H174.029V237.434C174.029 236.33 174.311 235.526 174.875 235.022C175.451 234.506 176.369 234.248 177.629 234.248V235.616C176.909 235.616 176.399 235.76 176.099 236.048C175.811 236.324 175.667 236.786 175.667 237.434V238.136H177.737V239.486ZM183.661 239.486H181.591V248H179.953V239.486H178.675V238.136H179.953V237.434C179.953 236.33 180.235 235.526 180.799 235.022C181.375 234.506 182.293 234.248 183.553 234.248V235.616C182.833 235.616 182.323 235.76 182.023 236.048C181.735 236.324 181.591 236.786 181.591 237.434V238.136H183.661V239.486ZM194.571 242.69C194.571 243.002 194.553 243.332 194.517 243.68H186.633C186.693 244.652 187.023 245.414 187.623 245.966C188.235 246.506 188.973 246.776 189.837 246.776C190.545 246.776 191.133 246.614 191.601 246.29C192.081 245.954 192.417 245.51 192.609 244.958H194.373C194.109 245.906 193.581 246.68 192.789 247.28C191.997 247.868 191.013 248.162 189.837 248.162C188.901 248.162 188.061 247.952 187.317 247.532C186.585 247.112 186.009 246.518 185.589 245.75C185.169 244.97 184.959 244.07 184.959 243.05C184.959 242.03 185.163 241.136 185.571 240.368C185.979 239.6 186.549 239.012 187.281 238.604C188.025 238.184 188.877 237.974 189.837 237.974C190.773 237.974 191.601 238.178 192.321 238.586C193.041 238.994 193.593 239.558 193.977 240.278C194.373 240.986 194.571 241.79 194.571 242.69ZM192.879 242.348C192.879 241.724 192.741 241.19 192.465 240.746C192.189 240.29 191.811 239.948 191.331 239.72C190.863 239.48 190.341 239.36 189.765 239.36C188.937 239.36 188.229 239.624 187.641 240.152C187.065 240.68 186.735 241.412 186.651 242.348H192.879ZM196.121 243.05C196.121 242.03 196.325 241.142 196.733 240.386C197.141 239.618 197.705 239.024 198.425 238.604C199.157 238.184 199.991 237.974 200.927 237.974C202.139 237.974 203.135 238.268 203.915 238.856C204.707 239.444 205.229 240.26 205.481 241.304H203.717C203.549 240.704 203.219 240.23 202.727 239.882C202.247 239.534 201.647 239.36 200.927 239.36C199.991 239.36 199.235 239.684 198.659 240.332C198.083 240.968 197.795 241.874 197.795 243.05C197.795 244.238 198.083 245.156 198.659 245.804C199.235 246.452 199.991 246.776 200.927 246.776C201.647 246.776 202.247 246.608 202.727 246.272C203.207 245.936 203.537 245.456 203.717 244.832H205.481C205.217 245.84 204.689 246.65 203.897 247.262C203.105 247.862 202.115 248.162 200.927 248.162C199.991 248.162 199.157 247.952 198.425 247.532C197.705 247.112 197.141 246.518 196.733 245.75C196.325 244.982 196.121 244.082 196.121 243.05ZM209.664 239.486V245.3C209.664 245.78 209.766 246.122 209.97 246.326C210.174 246.518 210.528 246.614 211.032 246.614H212.238V248H210.762C209.85 248 209.166 247.79 208.71 247.37C208.254 246.95 208.026 246.26 208.026 245.3V239.486H206.748V238.136H208.026V235.652H209.664V238.136H212.238V239.486H209.664ZM215.069 236.534C214.757 236.534 214.493 236.426 214.277 236.21C214.061 235.994 213.953 235.73 213.953 235.418C213.953 235.106 214.061 234.842 214.277 234.626C214.493 234.41 214.757 234.302 215.069 234.302C215.369 234.302 215.621 234.41 215.825 234.626C216.041 234.842 216.149 235.106 216.149 235.418C216.149 235.73 216.041 235.994 215.825 236.21C215.621 236.426 215.369 236.534 215.069 236.534ZM215.861 238.136V248H214.223V238.136H215.861ZM222.325 246.488L225.385 238.136H227.131L223.261 248H221.353L217.483 238.136H219.247L222.325 246.488ZM237.742 242.69C237.742 243.002 237.724 243.332 237.688 243.68H229.804C229.864 244.652 230.194 245.414 230.794 245.966C231.406 246.506 232.144 246.776 233.008 246.776C233.716 246.776 234.304 246.614 234.772 246.29C235.252 245.954 235.588 245.51 235.78 244.958H237.544C237.28 245.906 236.752 246.68 235.96 247.28C235.168 247.868 234.184 248.162 233.008 248.162C232.072 248.162 231.232 247.952 230.488 247.532C229.756 247.112 229.18 246.518 228.76 245.75C228.34 244.97 228.13 244.07 228.13 243.05C228.13 242.03 228.334 241.136 228.742 240.368C229.15 239.6 229.72 239.012 230.452 238.604C231.196 238.184 232.048 237.974 233.008 237.974C233.944 237.974 234.772 238.178 235.492 238.586C236.212 238.994 236.764 239.558 237.148 240.278C237.544 240.986 237.742 241.79 237.742 242.69ZM236.05 242.348C236.05 241.724 235.912 241.19 235.636 240.746C235.36 240.29 234.982 239.948 234.502 239.72C234.034 239.48 233.512 239.36 232.936 239.36C232.108 239.36 231.4 239.624 230.812 240.152C230.236 240.68 229.906 241.412 229.822 242.348H236.05ZM118.557 277.162C117.801 277.162 117.123 277.036 116.523 276.784C115.923 276.52 115.449 276.16 115.101 275.704C114.753 275.236 114.561 274.702 114.525 274.102H116.217C116.265 274.594 116.493 274.996 116.901 275.308C117.321 275.62 117.867 275.776 118.539 275.776C119.163 275.776 119.655 275.638 120.015 275.362C120.375 275.086 120.555 274.738 120.555 274.318C120.555 273.886 120.363 273.568 119.979 273.364C119.595 273.148 119.001 272.938 118.197 272.734C117.465 272.542 116.865 272.35 116.397 272.158C115.941 271.954 115.545 271.66 115.209 271.276C114.885 270.88 114.723 270.364 114.723 269.728C114.723 269.224 114.873 268.762 115.173 268.342C115.473 267.922 115.899 267.592 116.451 267.352C117.003 267.1 117.633 266.974 118.341 266.974C119.433 266.974 120.315 267.25 120.987 267.802C121.659 268.354 122.019 269.11 122.067 270.07H120.429C120.393 269.554 120.183 269.14 119.799 268.828C119.427 268.516 118.923 268.36 118.287 268.36C117.699 268.36 117.231 268.486 116.883 268.738C116.535 268.99 116.361 269.32 116.361 269.728C116.361 270.052 116.463 270.322 116.667 270.538C116.883 270.742 117.147 270.91 117.459 271.042C117.783 271.162 118.227 271.3 118.791 271.456C119.499 271.648 120.075 271.84 120.519 272.032C120.963 272.212 121.341 272.488 121.653 272.86C121.977 273.232 122.145 273.718 122.157 274.318C122.157 274.858 122.007 275.344 121.707 275.776C121.407 276.208 120.981 276.55 120.429 276.802C119.889 277.042 119.265 277.162 118.557 277.162ZM123.857 272.032C123.857 271.024 124.061 270.142 124.469 269.386C124.877 268.618 125.435 268.024 126.143 267.604C126.863 267.184 127.661 266.974 128.537 266.974C129.401 266.974 130.151 267.16 130.787 267.532C131.423 267.904 131.897 268.372 132.209 268.936V267.136H133.865V277H132.209V275.164C131.885 275.74 131.399 276.22 130.751 276.604C130.115 276.976 129.371 277.162 128.519 277.162C127.643 277.162 126.851 276.946 126.143 276.514C125.435 276.082 124.877 275.476 124.469 274.696C124.061 273.916 123.857 273.028 123.857 272.032ZM132.209 272.05C132.209 271.306 132.059 270.658 131.759 270.106C131.459 269.554 131.051 269.134 130.535 268.846C130.031 268.546 129.473 268.396 128.861 268.396C128.249 268.396 127.691 268.54 127.187 268.828C126.683 269.116 126.281 269.536 125.981 270.088C125.681 270.64 125.531 271.288 125.531 272.032C125.531 272.788 125.681 273.448 125.981 274.012C126.281 274.564 126.683 274.99 127.187 275.29C127.691 275.578 128.249 275.722 128.861 275.722C129.473 275.722 130.031 275.578 130.535 275.29C131.051 274.99 131.459 274.564 131.759 274.012C132.059 273.448 132.209 272.794 132.209 272.05ZM140.305 275.488L143.365 267.136H145.111L141.241 277H139.333L135.463 267.136H137.227L140.305 275.488ZM155.723 271.69C155.723 272.002 155.705 272.332 155.669 272.68H147.785C147.845 273.652 148.175 274.414 148.775 274.966C149.387 275.506 150.125 275.776 150.989 275.776C151.697 275.776 152.285 275.614 152.753 275.29C153.233 274.954 153.569 274.51 153.761 273.958H155.525C155.261 274.906 154.733 275.68 153.941 276.28C153.149 276.868 152.165 277.162 150.989 277.162C150.053 277.162 149.213 276.952 148.469 276.532C147.737 276.112 147.161 275.518 146.741 274.75C146.321 273.97 146.111 273.07 146.111 272.05C146.111 271.03 146.315 270.136 146.723 269.368C147.131 268.6 147.701 268.012 148.433 267.604C149.177 267.184 150.029 266.974 150.989 266.974C151.925 266.974 152.753 267.178 153.473 267.586C154.193 267.994 154.745 268.558 155.129 269.278C155.525 269.986 155.723 270.79 155.723 271.69ZM154.031 271.348C154.031 270.724 153.893 270.19 153.617 269.746C153.341 269.29 152.963 268.948 152.483 268.72C152.015 268.48 151.493 268.36 150.917 268.36C150.089 268.36 149.381 268.624 148.793 269.152C148.217 269.68 147.887 270.412 147.803 271.348H154.031ZM157.273 272.032C157.273 271.024 157.477 270.142 157.885 269.386C158.293 268.618 158.851 268.024 159.559 267.604C160.279 267.184 161.083 266.974 161.971 266.974C162.739 266.974 163.453 267.154 164.113 267.514C164.773 267.862 165.277 268.324 165.625 268.9V263.68H167.281V277H165.625V275.146C165.301 275.734 164.821 276.22 164.185 276.604C163.549 276.976 162.805 277.162 161.953 277.162C161.077 277.162 160.279 276.946 159.559 276.514C158.851 276.082 158.293 275.476 157.885 274.696C157.477 273.916 157.273 273.028 157.273 272.032ZM165.625 272.05C165.625 271.306 165.475 270.658 165.175 270.106C164.875 269.554 164.467 269.134 163.951 268.846C163.447 268.546 162.889 268.396 162.277 268.396C161.665 268.396 161.107 268.54 160.603 268.828C160.099 269.116 159.697 269.536 159.397 270.088C159.097 270.64 158.947 271.288 158.947 272.032C158.947 272.788 159.097 273.448 159.397 274.012C159.697 274.564 160.099 274.99 160.603 275.29C161.107 275.578 161.665 275.722 162.277 275.722C162.889 275.722 163.447 275.578 163.951 275.29C164.467 274.99 164.875 274.564 165.175 274.012C165.475 273.448 165.625 272.794 165.625 272.05ZM183.848 271.69C183.848 272.002 183.83 272.332 183.794 272.68H175.91C175.97 273.652 176.3 274.414 176.9 274.966C177.512 275.506 178.25 275.776 179.114 275.776C179.822 275.776 180.41 275.614 180.878 275.29C181.358 274.954 181.694 274.51 181.886 273.958H183.65C183.386 274.906 182.858 275.68 182.066 276.28C181.274 276.868 180.29 277.162 179.114 277.162C178.178 277.162 177.338 276.952 176.594 276.532C175.862 276.112 175.286 275.518 174.866 274.75C174.446 273.97 174.236 273.07 174.236 272.05C174.236 271.03 174.44 270.136 174.848 269.368C175.256 268.6 175.826 268.012 176.558 267.604C177.302 267.184 178.154 266.974 179.114 266.974C180.05 266.974 180.878 267.178 181.598 267.586C182.318 267.994 182.87 268.558 183.254 269.278C183.65 269.986 183.848 270.79 183.848 271.69ZM182.156 271.348C182.156 270.724 182.018 270.19 181.742 269.746C181.466 269.29 181.088 268.948 180.608 268.72C180.14 268.48 179.618 268.36 179.042 268.36C178.214 268.36 177.506 268.624 176.918 269.152C176.342 269.68 176.012 270.412 175.928 271.348H182.156ZM190.816 266.956C192.016 266.956 192.988 267.322 193.732 268.054C194.476 268.774 194.848 269.818 194.848 271.186V277H193.228V271.42C193.228 270.436 192.982 269.686 192.49 269.17C191.998 268.642 191.326 268.378 190.474 268.378C189.61 268.378 188.92 268.648 188.404 269.188C187.9 269.728 187.648 270.514 187.648 271.546V277H186.01V267.136H187.648V268.54C187.972 268.036 188.41 267.646 188.962 267.37C189.526 267.094 190.144 266.956 190.816 266.956ZM206.524 271.69C206.524 272.002 206.506 272.332 206.47 272.68H198.586C198.646 273.652 198.976 274.414 199.576 274.966C200.188 275.506 200.926 275.776 201.79 275.776C202.498 275.776 203.086 275.614 203.554 275.29C204.034 274.954 204.37 274.51 204.562 273.958H206.326C206.062 274.906 205.534 275.68 204.742 276.28C203.95 276.868 202.966 277.162 201.79 277.162C200.854 277.162 200.014 276.952 199.27 276.532C198.538 276.112 197.962 275.518 197.542 274.75C197.122 273.97 196.912 273.07 196.912 272.05C196.912 271.03 197.116 270.136 197.524 269.368C197.932 268.6 198.502 268.012 199.234 267.604C199.978 267.184 200.83 266.974 201.79 266.974C202.726 266.974 203.554 267.178 204.274 267.586C204.994 267.994 205.546 268.558 205.93 269.278C206.326 269.986 206.524 270.79 206.524 271.69ZM204.832 271.348C204.832 270.724 204.694 270.19 204.418 269.746C204.142 269.29 203.764 268.948 203.284 268.72C202.816 268.48 202.294 268.36 201.718 268.36C200.89 268.36 200.182 268.624 199.594 269.152C199.018 269.68 198.688 270.412 198.604 271.348H204.832ZM210.324 268.738C210.612 268.174 211.02 267.736 211.548 267.424C212.088 267.112 212.742 266.956 213.51 266.956V268.648H213.078C211.242 268.648 210.324 269.644 210.324 271.636V277H208.686V267.136H210.324V268.738ZM219.469 266.974C220.321 266.974 221.065 267.16 221.701 267.532C222.349 267.904 222.829 268.372 223.141 268.936V267.136H224.797V277.216C224.797 278.116 224.605 278.914 224.221 279.61C223.837 280.318 223.285 280.87 222.565 281.266C221.857 281.662 221.029 281.86 220.081 281.86C218.785 281.86 217.705 281.554 216.841 280.942C215.977 280.33 215.467 279.496 215.311 278.44H216.931C217.111 279.04 217.483 279.52 218.047 279.88C218.611 280.252 219.289 280.438 220.081 280.438C220.981 280.438 221.713 280.156 222.277 279.592C222.853 279.028 223.141 278.236 223.141 277.216V275.146C222.817 275.722 222.337 276.202 221.701 276.586C221.065 276.97 220.321 277.162 219.469 277.162C218.593 277.162 217.795 276.946 217.075 276.514C216.367 276.082 215.809 275.476 215.401 274.696C214.993 273.916 214.789 273.028 214.789 272.032C214.789 271.024 214.993 270.142 215.401 269.386C215.809 268.618 216.367 268.024 217.075 267.604C217.795 267.184 218.593 266.974 219.469 266.974ZM223.141 272.05C223.141 271.306 222.991 270.658 222.691 270.106C222.391 269.554 221.983 269.134 221.467 268.846C220.963 268.546 220.405 268.396 219.793 268.396C219.181 268.396 218.623 268.54 218.119 268.828C217.615 269.116 217.213 269.536 216.913 270.088C216.613 270.64 216.463 271.288 216.463 272.032C216.463 272.788 216.613 273.448 216.913 274.012C217.213 274.564 217.615 274.99 218.119 275.29C218.623 275.578 219.181 275.722 219.793 275.722C220.405 275.722 220.963 275.578 221.467 275.29C221.983 274.99 222.391 274.564 222.691 274.012C222.991 273.448 223.141 272.794 223.141 272.05ZM236.061 267.136L230.121 281.644H228.429L230.373 276.892L226.395 267.136H228.213L231.309 275.128L234.369 267.136H236.061Z" fill="#0C3D57"/>
</g>
<defs>
<filter id="filter0_d_1_6242" x="0" y="0" width="390" height="437" filterUnits="userSpaceOnUse" color-interpolation-filters="sRGB">
<feFlood flood-opacity="0" result="BackgroundImageFix"/>
<feColorMatrix in="SourceAlpha" type="matrix" values="0 0 0 0 0 0 0 0 0 0 0 0 0 0 0 0 0 0 127 0" result="hardAlpha"/>
<feOffset dx="20" dy="20"/>
<feGaussianBlur stdDeviation="50"/>
<feComposite in2="hardAlpha" operator="out"/>
<feColorMatrix type="matrix" values="0 0 0 0 0.0282639 0 0 0 0 0.210031 0 0 0 0 0.308333 0 0 0 0.04 0"/>
<feBlend mode="normal" in2="BackgroundImageFix" result="effect1_dropShadow_1_6242"/>
<feBlend mode="normal" in="SourceGraphic" in2="effect1_dropShadow_1_6242" result="shape"/>
</filter>
</defs>
</svg>
