<svg width="485" height="306" viewBox="0 0 485 306" fill="none" xmlns="http://www.w3.org/2000/svg">
<g filter="url(#filter0_d_1_6096)">
<rect x="80" y="80" width="285" height="106" rx="10" fill="white" shape-rendering="crispEdges"/>
<circle cx="132" cy="133" r="28" fill="#EDF8FF"/>
<path d="M141.065 132.125H136.352C134.007 132.125 132.875 130.982 132.875 128.648V123.935C132.875 121.59 134.018 120.458 136.352 120.458H141.065C143.41 120.458 144.542 121.602 144.542 123.935V128.648C144.542 130.982 143.398 132.125 141.065 132.125ZM136.352 122.208C134.975 122.208 134.625 122.558 134.625 123.935V128.648C134.625 130.025 134.975 130.375 136.352 130.375H141.065C142.442 130.375 142.792 130.025 142.792 128.648V123.935C142.792 122.558 142.442 122.208 141.065 122.208H136.352Z" fill="#42A4D9"/>
<path d="M127.648 132.125H122.935C120.59 132.125 119.458 131.087 119.458 128.94V123.643C119.458 121.497 120.602 120.458 122.935 120.458H127.648C129.993 120.458 131.125 121.497 131.125 123.643V128.928C131.125 131.087 129.982 132.125 127.648 132.125ZM122.935 122.208C121.372 122.208 121.208 122.652 121.208 123.643V128.928C121.208 129.932 121.372 130.363 122.935 130.363H127.648C129.212 130.363 129.375 129.92 129.375 128.928V123.643C129.375 122.64 129.212 122.208 127.648 122.208H122.935Z" fill="#42A4D9"/>
<path d="M127.648 145.542H122.935C120.59 145.542 119.458 144.398 119.458 142.065V137.352C119.458 135.007 120.602 133.875 122.935 133.875H127.648C129.993 133.875 131.125 135.018 131.125 137.352V142.065C131.125 144.398 129.982 145.542 127.648 145.542ZM122.935 135.625C121.558 135.625 121.208 135.975 121.208 137.352V142.065C121.208 143.442 121.558 143.792 122.935 143.792H127.648C129.025 143.792 129.375 143.442 129.375 142.065V137.352C129.375 135.975 129.025 135.625 127.648 135.625H122.935Z" fill="#42A4D9"/>
<path d="M141.917 140.292H134.917C134.438 140.292 134.042 139.895 134.042 139.417C134.042 138.938 134.438 138.542 134.917 138.542H141.917C142.395 138.542 142.792 138.938 142.792 139.417C142.792 139.895 142.395 140.292 141.917 140.292Z" fill="#42A4D9"/>
<path d="M138.417 143.792C137.938 143.792 137.542 143.395 137.542 142.917V135.917C137.542 135.438 137.938 135.042 138.417 135.042C138.895 135.042 139.292 135.438 139.292 135.917V142.917C139.292 143.395 138.895 143.792 138.417 143.792Z" fill="#42A4D9"/>
<path d="M179.104 124.944C181.152 123.237 182.784 121.819 184 120.688C185.216 119.536 186.229 118.341 187.04 117.104C187.851 115.867 188.256 114.651 188.256 113.456C188.256 112.368 188 111.515 187.488 110.896C186.976 110.277 186.187 109.968 185.12 109.968C184.053 109.968 183.232 110.331 182.656 111.056C182.08 111.76 181.781 112.731 181.76 113.968H177.408C177.493 111.408 178.251 109.467 179.68 108.144C181.131 106.821 182.965 106.16 185.184 106.16C187.616 106.16 189.483 106.811 190.784 108.112C192.085 109.392 192.736 111.088 192.736 113.2C192.736 114.864 192.288 116.453 191.392 117.968C190.496 119.483 189.472 120.805 188.32 121.936C187.168 123.045 185.664 124.389 183.808 125.968H193.248V129.68H177.44V126.352L179.104 124.944ZM201.255 123.44C201.426 124.379 201.81 125.104 202.407 125.616C203.026 126.107 203.847 126.352 204.871 126.352C206.194 126.352 207.154 125.808 207.751 124.72C208.348 123.611 208.647 121.755 208.647 119.152C208.156 119.835 207.463 120.368 206.567 120.752C205.692 121.136 204.743 121.328 203.719 121.328C202.354 121.328 201.116 121.051 200.007 120.496C198.919 119.92 198.055 119.077 197.415 117.968C196.775 116.837 196.455 115.472 196.455 113.872C196.455 111.504 197.159 109.627 198.567 108.24C199.975 106.832 201.895 106.128 204.327 106.128C207.356 106.128 209.49 107.099 210.727 109.04C211.986 110.981 212.615 113.904 212.615 117.808C212.615 120.581 212.37 122.853 211.879 124.624C211.41 126.395 210.588 127.739 209.415 128.656C208.263 129.573 206.684 130.032 204.679 130.032C203.1 130.032 201.756 129.733 200.647 129.136C199.538 128.517 198.684 127.717 198.087 126.736C197.511 125.733 197.18 124.635 197.095 123.44H201.255ZM204.647 117.68C205.756 117.68 206.631 117.339 207.271 116.656C207.911 115.973 208.231 115.056 208.231 113.904C208.231 112.645 207.89 111.675 207.207 110.992C206.546 110.288 205.639 109.936 204.487 109.936C203.335 109.936 202.418 110.299 201.735 111.024C201.074 111.728 200.743 112.667 200.743 113.84C200.743 114.971 201.063 115.899 201.703 116.624C202.364 117.328 203.346 117.68 204.647 117.68ZM233.35 120.56H227.302V126.768H223.078V120.56H217.03V116.656H223.078V110.448H227.302V116.656H233.35V120.56Z" fill="#42A4D9"/>
<path opacity="0.5" d="M181.553 149.454C182.921 149.454 184.103 149.712 185.099 150.228C186.107 150.732 186.875 151.458 187.403 152.406C187.943 153.354 188.213 154.47 188.213 155.754C188.213 157.038 187.943 158.154 187.403 159.102C186.875 160.038 186.107 160.758 185.099 161.262C184.103 161.754 182.921 162 181.553 162H177.647V149.454H181.553ZM181.553 160.65C183.173 160.65 184.409 160.224 185.261 159.372C186.113 158.508 186.539 157.302 186.539 155.754C186.539 154.194 186.107 152.976 185.243 152.1C184.391 151.224 183.161 150.786 181.553 150.786H179.285V160.65H181.553ZM199.373 156.69C199.373 157.002 199.355 157.332 199.319 157.68H191.435C191.495 158.652 191.825 159.414 192.425 159.966C193.037 160.506 193.775 160.776 194.639 160.776C195.347 160.776 195.935 160.614 196.403 160.29C196.883 159.954 197.219 159.51 197.411 158.958H199.175C198.911 159.906 198.383 160.68 197.591 161.28C196.799 161.868 195.815 162.162 194.639 162.162C193.703 162.162 192.863 161.952 192.119 161.532C191.387 161.112 190.811 160.518 190.391 159.75C189.971 158.97 189.761 158.07 189.761 157.05C189.761 156.03 189.965 155.136 190.373 154.368C190.781 153.6 191.351 153.012 192.083 152.604C192.827 152.184 193.679 151.974 194.639 151.974C195.575 151.974 196.403 152.178 197.123 152.586C197.843 152.994 198.395 153.558 198.779 154.278C199.175 154.986 199.373 155.79 199.373 156.69ZM197.681 156.348C197.681 155.724 197.543 155.19 197.267 154.746C196.991 154.29 196.613 153.948 196.133 153.72C195.665 153.48 195.143 153.36 194.567 153.36C193.739 153.36 193.031 153.624 192.443 154.152C191.867 154.68 191.537 155.412 191.453 156.348H197.681ZM205.207 160.488L208.267 152.136H210.013L206.143 162H204.235L200.365 152.136H202.129L205.207 160.488ZM212.471 150.534C212.159 150.534 211.895 150.426 211.679 150.21C211.463 149.994 211.355 149.73 211.355 149.418C211.355 149.106 211.463 148.842 211.679 148.626C211.895 148.41 212.159 148.302 212.471 148.302C212.771 148.302 213.023 148.41 213.227 148.626C213.443 148.842 213.551 149.106 213.551 149.418C213.551 149.73 213.443 149.994 213.227 150.21C213.023 150.426 212.771 150.534 212.471 150.534ZM213.263 152.136V162H211.625V152.136H213.263ZM215.443 157.05C215.443 156.03 215.647 155.142 216.055 154.386C216.463 153.618 217.027 153.024 217.747 152.604C218.479 152.184 219.313 151.974 220.249 151.974C221.461 151.974 222.457 152.268 223.237 152.856C224.029 153.444 224.551 154.26 224.803 155.304H223.039C222.871 154.704 222.541 154.23 222.049 153.882C221.569 153.534 220.969 153.36 220.249 153.36C219.313 153.36 218.557 153.684 217.981 154.332C217.405 154.968 217.117 155.874 217.117 157.05C217.117 158.238 217.405 159.156 217.981 159.804C218.557 160.452 219.313 160.776 220.249 160.776C220.969 160.776 221.569 160.608 222.049 160.272C222.529 159.936 222.859 159.456 223.039 158.832H224.803C224.539 159.84 224.011 160.65 223.219 161.262C222.427 161.862 221.437 162.162 220.249 162.162C219.313 162.162 218.479 161.952 217.747 161.532C217.027 161.112 216.463 160.518 216.055 159.75C215.647 158.982 215.443 158.082 215.443 157.05ZM235.989 156.69C235.989 157.002 235.971 157.332 235.935 157.68H228.051C228.111 158.652 228.441 159.414 229.041 159.966C229.653 160.506 230.391 160.776 231.255 160.776C231.963 160.776 232.551 160.614 233.019 160.29C233.499 159.954 233.835 159.51 234.027 158.958H235.791C235.527 159.906 234.999 160.68 234.207 161.28C233.415 161.868 232.431 162.162 231.255 162.162C230.319 162.162 229.479 161.952 228.735 161.532C228.003 161.112 227.427 160.518 227.007 159.75C226.587 158.97 226.377 158.07 226.377 157.05C226.377 156.03 226.581 155.136 226.989 154.368C227.397 153.6 227.967 153.012 228.699 152.604C229.443 152.184 230.295 151.974 231.255 151.974C232.191 151.974 233.019 152.178 233.739 152.586C234.459 152.994 235.011 153.558 235.395 154.278C235.791 154.986 235.989 155.79 235.989 156.69ZM234.297 156.348C234.297 155.724 234.159 155.19 233.883 154.746C233.607 154.29 233.229 153.948 232.749 153.72C232.281 153.48 231.759 153.36 231.183 153.36C230.355 153.36 229.647 153.624 229.059 154.152C228.483 154.68 228.153 155.412 228.069 156.348H234.297ZM242.337 155.718C242.337 154.494 242.613 153.396 243.165 152.424C243.717 151.44 244.467 150.672 245.415 150.12C246.375 149.568 247.437 149.292 248.601 149.292C249.969 149.292 251.163 149.622 252.183 150.282C253.203 150.942 253.947 151.878 254.415 153.09H252.453C252.105 152.334 251.601 151.752 250.941 151.344C250.293 150.936 249.513 150.732 248.601 150.732C247.725 150.732 246.939 150.936 246.243 151.344C245.547 151.752 245.001 152.334 244.605 153.09C244.209 153.834 244.011 154.71 244.011 155.718C244.011 156.714 244.209 157.59 244.605 158.346C245.001 159.09 245.547 159.666 246.243 160.074C246.939 160.482 247.725 160.686 248.601 160.686C249.513 160.686 250.293 160.488 250.941 160.092C251.601 159.684 252.105 159.102 252.453 158.346H254.415C253.947 159.546 253.203 160.476 252.183 161.136C251.163 161.784 249.969 162.108 248.601 162.108C247.437 162.108 246.375 161.838 245.415 161.298C244.467 160.746 243.717 159.984 243.165 159.012C242.613 158.04 242.337 156.942 242.337 155.718ZM256.242 157.032C256.242 156.024 256.446 155.142 256.854 154.386C257.262 153.618 257.82 153.024 258.528 152.604C259.248 152.184 260.046 151.974 260.922 151.974C261.786 151.974 262.536 152.16 263.172 152.532C263.808 152.904 264.282 153.372 264.594 153.936V152.136H266.25V162H264.594V160.164C264.27 160.74 263.784 161.22 263.136 161.604C262.5 161.976 261.756 162.162 260.904 162.162C260.028 162.162 259.236 161.946 258.528 161.514C257.82 161.082 257.262 160.476 256.854 159.696C256.446 158.916 256.242 158.028 256.242 157.032ZM264.594 157.05C264.594 156.306 264.444 155.658 264.144 155.106C263.844 154.554 263.436 154.134 262.92 153.846C262.416 153.546 261.858 153.396 261.246 153.396C260.634 153.396 260.076 153.54 259.572 153.828C259.068 154.116 258.666 154.536 258.366 155.088C258.066 155.64 257.916 156.288 257.916 157.032C257.916 157.788 258.066 158.448 258.366 159.012C258.666 159.564 259.068 159.99 259.572 160.29C260.076 160.578 260.634 160.722 261.246 160.722C261.858 160.722 262.416 160.578 262.92 160.29C263.436 159.99 263.844 159.564 264.144 159.012C264.444 158.448 264.594 157.794 264.594 157.05ZM271.016 153.486V159.3C271.016 159.78 271.118 160.122 271.322 160.326C271.526 160.518 271.88 160.614 272.384 160.614H273.59V162H272.114C271.202 162 270.518 161.79 270.062 161.37C269.606 160.95 269.378 160.26 269.378 159.3V153.486H268.1V152.136H269.378V149.652H271.016V152.136H273.59V153.486H271.016ZM284.574 156.69C284.574 157.002 284.556 157.332 284.52 157.68H276.636C276.696 158.652 277.026 159.414 277.626 159.966C278.238 160.506 278.976 160.776 279.84 160.776C280.548 160.776 281.136 160.614 281.604 160.29C282.084 159.954 282.42 159.51 282.612 158.958H284.376C284.112 159.906 283.584 160.68 282.792 161.28C282 161.868 281.016 162.162 279.84 162.162C278.904 162.162 278.064 161.952 277.32 161.532C276.588 161.112 276.012 160.518 275.592 159.75C275.172 158.97 274.962 158.07 274.962 157.05C274.962 156.03 275.166 155.136 275.574 154.368C275.982 153.6 276.552 153.012 277.284 152.604C278.028 152.184 278.88 151.974 279.84 151.974C280.776 151.974 281.604 152.178 282.324 152.586C283.044 152.994 283.596 153.558 283.98 154.278C284.376 154.986 284.574 155.79 284.574 156.69ZM282.882 156.348C282.882 155.724 282.744 155.19 282.468 154.746C282.192 154.29 281.814 153.948 281.334 153.72C280.866 153.48 280.344 153.36 279.768 153.36C278.94 153.36 278.232 153.624 277.644 154.152C277.068 154.68 276.738 155.412 276.654 156.348H282.882ZM290.805 151.974C291.657 151.974 292.401 152.16 293.037 152.532C293.685 152.904 294.165 153.372 294.477 153.936V152.136H296.133V162.216C296.133 163.116 295.941 163.914 295.557 164.61C295.173 165.318 294.621 165.87 293.901 166.266C293.193 166.662 292.365 166.86 291.417 166.86C290.121 166.86 289.041 166.554 288.177 165.942C287.313 165.33 286.803 164.496 286.647 163.44H288.267C288.447 164.04 288.819 164.52 289.383 164.88C289.947 165.252 290.625 165.438 291.417 165.438C292.317 165.438 293.049 165.156 293.613 164.592C294.189 164.028 294.477 163.236 294.477 162.216V160.146C294.153 160.722 293.673 161.202 293.037 161.586C292.401 161.97 291.657 162.162 290.805 162.162C289.929 162.162 289.131 161.946 288.411 161.514C287.703 161.082 287.145 160.476 286.737 159.696C286.329 158.916 286.125 158.028 286.125 157.032C286.125 156.024 286.329 155.142 286.737 154.386C287.145 153.618 287.703 153.024 288.411 152.604C289.131 152.184 289.929 151.974 290.805 151.974ZM294.477 157.05C294.477 156.306 294.327 155.658 294.027 155.106C293.727 154.554 293.319 154.134 292.803 153.846C292.299 153.546 291.741 153.396 291.129 153.396C290.517 153.396 289.959 153.54 289.455 153.828C288.951 154.116 288.549 154.536 288.249 155.088C287.949 155.64 287.799 156.288 287.799 157.032C287.799 157.788 287.949 158.448 288.249 159.012C288.549 159.564 288.951 159.99 289.455 160.29C289.959 160.578 290.517 160.722 291.129 160.722C291.741 160.722 292.299 160.578 292.803 160.29C293.319 159.99 293.727 159.564 294.027 159.012C294.327 158.448 294.477 157.794 294.477 157.05ZM303.203 162.162C302.279 162.162 301.439 161.952 300.683 161.532C299.939 161.112 299.351 160.518 298.919 159.75C298.499 158.97 298.289 158.07 298.289 157.05C298.289 156.042 298.505 155.154 298.937 154.386C299.381 153.606 299.981 153.012 300.737 152.604C301.493 152.184 302.339 151.974 303.275 151.974C304.211 151.974 305.057 152.184 305.813 152.604C306.569 153.012 307.163 153.6 307.595 154.368C308.039 155.136 308.261 156.03 308.261 157.05C308.261 158.07 308.033 158.97 307.577 159.75C307.133 160.518 306.527 161.112 305.759 161.532C304.991 161.952 304.139 162.162 303.203 162.162ZM303.203 160.722C303.791 160.722 304.343 160.584 304.859 160.308C305.375 160.032 305.789 159.618 306.101 159.066C306.425 158.514 306.587 157.842 306.587 157.05C306.587 156.258 306.431 155.586 306.119 155.034C305.807 154.482 305.399 154.074 304.895 153.81C304.391 153.534 303.845 153.396 303.257 153.396C302.657 153.396 302.105 153.534 301.601 153.81C301.109 154.074 300.713 154.482 300.413 155.034C300.113 155.586 299.963 156.258 299.963 157.05C299.963 157.854 300.107 158.532 300.395 159.084C300.695 159.636 301.091 160.05 301.583 160.326C302.075 160.59 302.615 160.722 303.203 160.722ZM312.052 153.738C312.34 153.174 312.748 152.736 313.276 152.424C313.816 152.112 314.47 151.956 315.238 151.956V153.648H314.806C312.97 153.648 312.052 154.644 312.052 156.636V162H310.414V152.136H312.052V153.738ZM317.975 150.534C317.663 150.534 317.399 150.426 317.183 150.21C316.967 149.994 316.859 149.73 316.859 149.418C316.859 149.106 316.967 148.842 317.183 148.626C317.399 148.41 317.663 148.302 317.975 148.302C318.275 148.302 318.527 148.41 318.731 148.626C318.947 148.842 319.055 149.106 319.055 149.418C319.055 149.73 318.947 149.994 318.731 150.21C318.527 150.426 318.275 150.534 317.975 150.534ZM318.767 152.136V162H317.129V152.136H318.767ZM330.559 156.69C330.559 157.002 330.541 157.332 330.505 157.68H322.621C322.681 158.652 323.011 159.414 323.611 159.966C324.223 160.506 324.961 160.776 325.825 160.776C326.533 160.776 327.121 160.614 327.589 160.29C328.069 159.954 328.405 159.51 328.597 158.958H330.361C330.097 159.906 329.569 160.68 328.777 161.28C327.985 161.868 327.001 162.162 325.825 162.162C324.889 162.162 324.049 161.952 323.305 161.532C322.573 161.112 321.997 160.518 321.577 159.75C321.157 158.97 320.947 158.07 320.947 157.05C320.947 156.03 321.151 155.136 321.559 154.368C321.967 153.6 322.537 153.012 323.269 152.604C324.013 152.184 324.865 151.974 325.825 151.974C326.761 151.974 327.589 152.178 328.309 152.586C329.029 152.994 329.581 153.558 329.965 154.278C330.361 154.986 330.559 155.79 330.559 156.69ZM328.867 156.348C328.867 155.724 328.729 155.19 328.453 154.746C328.177 154.29 327.799 153.948 327.319 153.72C326.851 153.48 326.329 153.36 325.753 153.36C324.925 153.36 324.217 153.624 323.629 154.152C323.053 154.68 322.723 155.412 322.639 156.348H328.867ZM336.213 162.162C335.457 162.162 334.779 162.036 334.179 161.784C333.579 161.52 333.105 161.16 332.757 160.704C332.409 160.236 332.217 159.702 332.181 159.102H333.873C333.921 159.594 334.149 159.996 334.557 160.308C334.977 160.62 335.523 160.776 336.195 160.776C336.819 160.776 337.311 160.638 337.671 160.362C338.031 160.086 338.211 159.738 338.211 159.318C338.211 158.886 338.019 158.568 337.635 158.364C337.251 158.148 336.657 157.938 335.853 157.734C335.121 157.542 334.521 157.35 334.053 157.158C333.597 156.954 333.201 156.66 332.865 156.276C332.541 155.88 332.379 155.364 332.379 154.728C332.379 154.224 332.529 153.762 332.829 153.342C333.129 152.922 333.555 152.592 334.107 152.352C334.659 152.1 335.289 151.974 335.997 151.974C337.089 151.974 337.971 152.25 338.643 152.802C339.315 153.354 339.675 154.11 339.723 155.07H338.085C338.049 154.554 337.839 154.14 337.455 153.828C337.083 153.516 336.579 153.36 335.943 153.36C335.355 153.36 334.887 153.486 334.539 153.738C334.191 153.99 334.017 154.32 334.017 154.728C334.017 155.052 334.119 155.322 334.323 155.538C334.539 155.742 334.803 155.91 335.115 156.042C335.439 156.162 335.883 156.3 336.447 156.456C337.155 156.648 337.731 156.84 338.175 157.032C338.619 157.212 338.997 157.488 339.309 157.86C339.633 158.232 339.801 158.718 339.813 159.318C339.813 159.858 339.663 160.344 339.363 160.776C339.063 161.208 338.637 161.55 338.085 161.802C337.545 162.042 336.921 162.162 336.213 162.162Z" fill="#0C3D57"/>
</g>
<defs>
<filter id="filter0_d_1_6096" x="0" y="0" width="485" height="306" filterUnits="userSpaceOnUse" color-interpolation-filters="sRGB">
<feFlood flood-opacity="0" result="BackgroundImageFix"/>
<feColorMatrix in="SourceAlpha" type="matrix" values="0 0 0 0 0 0 0 0 0 0 0 0 0 0 0 0 0 0 127 0" result="hardAlpha"/>
<feOffset dx="20" dy="20"/>
<feGaussianBlur stdDeviation="50"/>
<feComposite in2="hardAlpha" operator="out"/>
<feColorMatrix type="matrix" values="0 0 0 0 0.0282639 0 0 0 0 0.210031 0 0 0 0 0.308333 0 0 0 0.04 0"/>
<feBlend mode="normal" in2="BackgroundImageFix" result="effect1_dropShadow_1_6096"/>
<feBlend mode="normal" in="SourceGraphic" in2="effect1_dropShadow_1_6096" result="shape"/>
</filter>
</defs>
</svg>
