<svg width="390" height="437" viewBox="0 0 390 437" fill="none" xmlns="http://www.w3.org/2000/svg">
<g filter="url(#filter0_d_1_6202)">
<rect x="80" y="80" width="190" height="237" rx="10" fill="white" shape-rendering="crispEdges"/>
<circle cx="175" cy="140" r="28" fill="#EDF8FF"/>
<path d="M178.803 151.958H171.197C165.468 151.958 163.018 149.508 163.018 143.78V143.628C163.018 138.448 165.06 135.952 169.633 135.52C170.1 135.485 170.543 135.835 170.59 136.313C170.637 136.792 170.287 137.223 169.797 137.27C166.133 137.608 164.768 139.335 164.768 143.64V143.792C164.768 148.54 166.448 150.22 171.197 150.22H178.803C183.552 150.22 185.232 148.54 185.232 143.792V143.64C185.232 139.312 183.843 137.585 180.11 137.27C179.632 137.223 179.27 136.803 179.317 136.325C179.363 135.847 179.772 135.485 180.262 135.532C184.905 135.928 186.982 138.437 186.982 143.652V143.803C186.982 149.508 184.532 151.958 178.803 151.958Z" fill="#42A4D9"/>
<path d="M175 144.235C174.522 144.235 174.125 143.838 174.125 143.36V128.333C174.125 127.855 174.522 127.458 175 127.458C175.478 127.458 175.875 127.855 175.875 128.333V143.36C175.875 143.85 175.478 144.235 175 144.235Z" fill="#42A4D9"/>
<path d="M175 145.542C174.778 145.542 174.557 145.46 174.382 145.285L170.473 141.377C170.135 141.038 170.135 140.478 170.473 140.14C170.812 139.802 171.372 139.802 171.71 140.14L175 143.43L178.29 140.14C178.628 139.802 179.188 139.802 179.527 140.14C179.865 140.478 179.865 141.038 179.527 141.377L175.618 145.285C175.443 145.46 175.222 145.542 175 145.542Z" fill="#42A4D9"/>
<path d="M136.152 190.8V186.672H143.864V210H139.256V190.8H136.152ZM148.29 198.032C148.29 194.341 148.951 191.451 150.274 189.36C151.618 187.269 153.836 186.224 156.93 186.224C160.023 186.224 162.231 187.269 163.554 189.36C164.898 191.451 165.57 194.341 165.57 198.032C165.57 201.744 164.898 204.656 163.554 206.768C162.231 208.88 160.023 209.936 156.93 209.936C153.836 209.936 151.618 208.88 150.274 206.768C148.951 204.656 148.29 201.744 148.29 198.032ZM161.154 198.032C161.154 196.453 161.047 195.131 160.834 194.064C160.642 192.976 160.236 192.091 159.618 191.408C159.02 190.725 158.124 190.384 156.93 190.384C155.735 190.384 154.828 190.725 154.21 191.408C153.612 192.091 153.207 192.976 152.994 194.064C152.802 195.131 152.706 196.453 152.706 198.032C152.706 199.653 152.802 201.019 152.994 202.128C153.186 203.216 153.591 204.101 154.21 204.784C154.828 205.445 155.735 205.776 156.93 205.776C158.124 205.776 159.031 205.445 159.65 204.784C160.268 204.101 160.674 203.216 160.866 202.128C161.058 201.019 161.154 199.653 161.154 198.032ZM168.977 198.032C168.977 194.341 169.639 191.451 170.961 189.36C172.305 187.269 174.524 186.224 177.617 186.224C180.711 186.224 182.919 187.269 184.241 189.36C185.585 191.451 186.257 194.341 186.257 198.032C186.257 201.744 185.585 204.656 184.241 206.768C182.919 208.88 180.711 209.936 177.617 209.936C174.524 209.936 172.305 208.88 170.961 206.768C169.639 204.656 168.977 201.744 168.977 198.032ZM181.841 198.032C181.841 196.453 181.735 195.131 181.521 194.064C181.329 192.976 180.924 192.091 180.305 191.408C179.708 190.725 178.812 190.384 177.617 190.384C176.423 190.384 175.516 190.725 174.897 191.408C174.3 192.091 173.895 192.976 173.681 194.064C173.489 195.131 173.393 196.453 173.393 198.032C173.393 199.653 173.489 201.019 173.681 202.128C173.873 203.216 174.279 204.101 174.897 204.784C175.516 205.445 176.423 205.776 177.617 205.776C178.812 205.776 179.719 205.445 180.337 204.784C180.956 204.101 181.361 203.216 181.553 202.128C181.745 201.019 181.841 199.653 181.841 198.032ZM189.153 192.4C189.153 190.779 189.622 189.509 190.561 188.592C191.521 187.675 192.747 187.216 194.241 187.216C195.734 187.216 196.95 187.675 197.889 188.592C198.849 189.509 199.329 190.779 199.329 192.4C199.329 194.043 198.849 195.323 197.889 196.24C196.95 197.157 195.734 197.616 194.241 197.616C192.747 197.616 191.521 197.157 190.561 196.24C189.622 195.323 189.153 194.043 189.153 192.4ZM209.697 187.6L197.121 210H192.769L205.313 187.6H209.697ZM194.209 189.904C193.035 189.904 192.449 190.736 192.449 192.4C192.449 194.085 193.035 194.928 194.209 194.928C194.785 194.928 195.233 194.725 195.553 194.32C195.873 193.893 196.033 193.253 196.033 192.4C196.033 190.736 195.425 189.904 194.209 189.904ZM203.201 205.168C203.201 203.525 203.67 202.256 204.609 201.36C205.569 200.443 206.795 199.984 208.289 199.984C209.782 199.984 210.987 200.443 211.905 201.36C212.843 202.256 213.313 203.525 213.313 205.168C213.313 206.811 212.843 208.091 211.905 209.008C210.987 209.925 209.782 210.384 208.289 210.384C206.774 210.384 205.547 209.925 204.609 209.008C203.67 208.091 203.201 206.811 203.201 205.168ZM208.257 202.672C207.041 202.672 206.433 203.504 206.433 205.168C206.433 206.853 207.041 207.696 208.257 207.696C209.451 207.696 210.049 206.853 210.049 205.168C210.049 203.504 209.451 202.672 208.257 202.672Z" fill="#42A4D9"/>
<path opacity="0.5" d="M116.91 235.454V236.786H111.456V241.016H115.884V242.348H111.456V248H109.818V235.454H116.91ZM120.526 239.738C120.814 239.174 121.222 238.736 121.75 238.424C122.29 238.112 122.944 237.956 123.712 237.956V239.648H123.28C121.444 239.648 120.526 240.644 120.526 242.636V248H118.888V238.136H120.526V239.738ZM134.603 242.69C134.603 243.002 134.585 243.332 134.549 243.68H126.665C126.725 244.652 127.055 245.414 127.655 245.966C128.267 246.506 129.005 246.776 129.869 246.776C130.577 246.776 131.165 246.614 131.633 246.29C132.113 245.954 132.449 245.51 132.641 244.958H134.405C134.141 245.906 133.613 246.68 132.821 247.28C132.029 247.868 131.045 248.162 129.869 248.162C128.933 248.162 128.093 247.952 127.349 247.532C126.617 247.112 126.041 246.518 125.621 245.75C125.201 244.97 124.991 244.07 124.991 243.05C124.991 242.03 125.195 241.136 125.603 240.368C126.011 239.6 126.581 239.012 127.313 238.604C128.057 238.184 128.909 237.974 129.869 237.974C130.805 237.974 131.633 238.178 132.353 238.586C133.073 238.994 133.625 239.558 134.009 240.278C134.405 240.986 134.603 241.79 134.603 242.69ZM132.911 242.348C132.911 241.724 132.773 241.19 132.497 240.746C132.221 240.29 131.843 239.948 131.363 239.72C130.895 239.48 130.373 239.36 129.797 239.36C128.969 239.36 128.261 239.624 127.673 240.152C127.097 240.68 126.767 241.412 126.683 242.348H132.911ZM145.765 242.69C145.765 243.002 145.747 243.332 145.711 243.68H137.827C137.887 244.652 138.217 245.414 138.817 245.966C139.429 246.506 140.167 246.776 141.031 246.776C141.739 246.776 142.327 246.614 142.795 246.29C143.275 245.954 143.611 245.51 143.803 244.958H145.567C145.303 245.906 144.775 246.68 143.983 247.28C143.191 247.868 142.207 248.162 141.031 248.162C140.095 248.162 139.255 247.952 138.511 247.532C137.779 247.112 137.203 246.518 136.783 245.75C136.363 244.97 136.153 244.07 136.153 243.05C136.153 242.03 136.357 241.136 136.765 240.368C137.173 239.6 137.743 239.012 138.475 238.604C139.219 238.184 140.071 237.974 141.031 237.974C141.967 237.974 142.795 238.178 143.515 238.586C144.235 238.994 144.787 239.558 145.171 240.278C145.567 240.986 145.765 241.79 145.765 242.69ZM144.073 242.348C144.073 241.724 143.935 241.19 143.659 240.746C143.383 240.29 143.005 239.948 142.525 239.72C142.057 239.48 141.535 239.36 140.959 239.36C140.131 239.36 139.423 239.624 138.835 240.152C138.259 240.68 137.929 241.412 137.845 242.348H144.073ZM152.114 243.032C152.114 242.024 152.318 241.142 152.726 240.386C153.134 239.618 153.692 239.024 154.4 238.604C155.12 238.184 155.924 237.974 156.812 237.974C157.58 237.974 158.294 238.154 158.954 238.514C159.614 238.862 160.118 239.324 160.466 239.9V234.68H162.122V248H160.466V246.146C160.142 246.734 159.662 247.22 159.026 247.604C158.39 247.976 157.646 248.162 156.794 248.162C155.918 248.162 155.12 247.946 154.4 247.514C153.692 247.082 153.134 246.476 152.726 245.696C152.318 244.916 152.114 244.028 152.114 243.032ZM160.466 243.05C160.466 242.306 160.316 241.658 160.016 241.106C159.716 240.554 159.308 240.134 158.792 239.846C158.288 239.546 157.73 239.396 157.118 239.396C156.506 239.396 155.948 239.54 155.444 239.828C154.94 240.116 154.538 240.536 154.238 241.088C153.938 241.64 153.788 242.288 153.788 243.032C153.788 243.788 153.938 244.448 154.238 245.012C154.538 245.564 154.94 245.99 155.444 246.29C155.948 246.578 156.506 246.722 157.118 246.722C157.73 246.722 158.288 246.578 158.792 246.29C159.308 245.99 159.716 245.564 160.016 245.012C160.316 244.448 160.466 243.794 160.466 243.05ZM169.192 248.162C168.268 248.162 167.428 247.952 166.672 247.532C165.928 247.112 165.34 246.518 164.908 245.75C164.488 244.97 164.278 244.07 164.278 243.05C164.278 242.042 164.494 241.154 164.926 240.386C165.37 239.606 165.97 239.012 166.726 238.604C167.482 238.184 168.328 237.974 169.264 237.974C170.2 237.974 171.046 238.184 171.802 238.604C172.558 239.012 173.152 239.6 173.584 240.368C174.028 241.136 174.25 242.03 174.25 243.05C174.25 244.07 174.022 244.97 173.566 245.75C173.122 246.518 172.516 247.112 171.748 247.532C170.98 247.952 170.128 248.162 169.192 248.162ZM169.192 246.722C169.78 246.722 170.332 246.584 170.848 246.308C171.364 246.032 171.778 245.618 172.09 245.066C172.414 244.514 172.576 243.842 172.576 243.05C172.576 242.258 172.42 241.586 172.108 241.034C171.796 240.482 171.388 240.074 170.884 239.81C170.38 239.534 169.834 239.396 169.246 239.396C168.646 239.396 168.094 239.534 167.59 239.81C167.098 240.074 166.702 240.482 166.402 241.034C166.102 241.586 165.952 242.258 165.952 243.05C165.952 243.854 166.096 244.532 166.384 245.084C166.684 245.636 167.08 246.05 167.572 246.326C168.064 246.59 168.604 246.722 169.192 246.722ZM189.544 238.136L186.466 248H184.774L182.398 240.17L180.022 248H178.33L175.234 238.136H176.908L179.176 246.416L181.624 238.136H183.298L185.692 246.434L187.924 238.136H189.544ZM195.975 237.956C197.175 237.956 198.147 238.322 198.891 239.054C199.635 239.774 200.007 240.818 200.007 242.186V248H198.387V242.42C198.387 241.436 198.141 240.686 197.649 240.17C197.157 239.642 196.485 239.378 195.633 239.378C194.769 239.378 194.079 239.648 193.563 240.188C193.059 240.728 192.807 241.514 192.807 242.546V248H191.169V238.136H192.807V239.54C193.131 239.036 193.569 238.646 194.121 238.37C194.685 238.094 195.303 237.956 195.975 237.956ZM204.321 234.68V248H202.683V234.68H204.321ZM211.415 248.162C210.491 248.162 209.651 247.952 208.895 247.532C208.151 247.112 207.563 246.518 207.131 245.75C206.711 244.97 206.501 244.07 206.501 243.05C206.501 242.042 206.717 241.154 207.149 240.386C207.593 239.606 208.193 239.012 208.949 238.604C209.705 238.184 210.551 237.974 211.487 237.974C212.423 237.974 213.269 238.184 214.025 238.604C214.781 239.012 215.375 239.6 215.807 240.368C216.251 241.136 216.473 242.03 216.473 243.05C216.473 244.07 216.245 244.97 215.789 245.75C215.345 246.518 214.739 247.112 213.971 247.532C213.203 247.952 212.351 248.162 211.415 248.162ZM211.415 246.722C212.003 246.722 212.555 246.584 213.071 246.308C213.587 246.032 214.001 245.618 214.313 245.066C214.637 244.514 214.799 243.842 214.799 243.05C214.799 242.258 214.643 241.586 214.331 241.034C214.019 240.482 213.611 240.074 213.107 239.81C212.603 239.534 212.057 239.396 211.469 239.396C210.869 239.396 210.317 239.534 209.813 239.81C209.321 240.074 208.925 240.482 208.625 241.034C208.325 241.586 208.175 242.258 208.175 243.05C208.175 243.854 208.319 244.532 208.607 245.084C208.907 245.636 209.303 246.05 209.795 246.326C210.287 246.59 210.827 246.722 211.415 246.722ZM218.014 243.032C218.014 242.024 218.218 241.142 218.626 240.386C219.034 239.618 219.592 239.024 220.3 238.604C221.02 238.184 221.818 237.974 222.694 237.974C223.558 237.974 224.308 238.16 224.944 238.532C225.58 238.904 226.054 239.372 226.366 239.936V238.136H228.022V248H226.366V246.164C226.042 246.74 225.556 247.22 224.908 247.604C224.272 247.976 223.528 248.162 222.676 248.162C221.8 248.162 221.008 247.946 220.3 247.514C219.592 247.082 219.034 246.476 218.626 245.696C218.218 244.916 218.014 244.028 218.014 243.032ZM226.366 243.05C226.366 242.306 226.216 241.658 225.916 241.106C225.616 240.554 225.208 240.134 224.692 239.846C224.188 239.546 223.63 239.396 223.018 239.396C222.406 239.396 221.848 239.54 221.344 239.828C220.84 240.116 220.438 240.536 220.138 241.088C219.838 241.64 219.688 242.288 219.688 243.032C219.688 243.788 219.838 244.448 220.138 245.012C220.438 245.564 220.84 245.99 221.344 246.29C221.848 246.578 222.406 246.722 223.018 246.722C223.63 246.722 224.188 246.578 224.692 246.29C225.208 245.99 225.616 245.564 225.916 245.012C226.216 244.448 226.366 243.794 226.366 243.05ZM230.178 243.032C230.178 242.024 230.382 241.142 230.79 240.386C231.198 239.618 231.756 239.024 232.464 238.604C233.184 238.184 233.988 237.974 234.876 237.974C235.644 237.974 236.358 238.154 237.018 238.514C237.678 238.862 238.182 239.324 238.53 239.9V234.68H240.186V248H238.53V246.146C238.206 246.734 237.726 247.22 237.09 247.604C236.454 247.976 235.71 248.162 234.858 248.162C233.982 248.162 233.184 247.946 232.464 247.514C231.756 247.082 231.198 246.476 230.79 245.696C230.382 244.916 230.178 244.028 230.178 243.032ZM238.53 243.05C238.53 242.306 238.38 241.658 238.08 241.106C237.78 240.554 237.372 240.134 236.856 239.846C236.352 239.546 235.794 239.396 235.182 239.396C234.57 239.396 234.012 239.54 233.508 239.828C233.004 240.116 232.602 240.536 232.302 241.088C232.002 241.64 231.852 242.288 231.852 243.032C231.852 243.788 232.002 244.448 232.302 245.012C232.602 245.564 233.004 245.99 233.508 246.29C234.012 246.578 234.57 246.722 235.182 246.722C235.794 246.722 236.352 246.578 236.856 246.29C237.372 245.99 237.78 245.564 238.08 245.012C238.38 244.448 238.53 243.794 238.53 243.05ZM117.889 272.032C117.889 271.024 118.093 270.142 118.501 269.386C118.909 268.618 119.467 268.024 120.175 267.604C120.895 267.184 121.693 266.974 122.569 266.974C123.433 266.974 124.183 267.16 124.819 267.532C125.455 267.904 125.929 268.372 126.241 268.936V267.136H127.897V277H126.241V275.164C125.917 275.74 125.431 276.22 124.783 276.604C124.147 276.976 123.403 277.162 122.551 277.162C121.675 277.162 120.883 276.946 120.175 276.514C119.467 276.082 118.909 275.476 118.501 274.696C118.093 273.916 117.889 273.028 117.889 272.032ZM126.241 272.05C126.241 271.306 126.091 270.658 125.791 270.106C125.491 269.554 125.083 269.134 124.567 268.846C124.063 268.546 123.505 268.396 122.893 268.396C122.281 268.396 121.723 268.54 121.219 268.828C120.715 269.116 120.313 269.536 120.013 270.088C119.713 270.64 119.563 271.288 119.563 272.032C119.563 272.788 119.713 273.448 120.013 274.012C120.313 274.564 120.715 274.99 121.219 275.29C121.723 275.578 122.281 275.722 122.893 275.722C123.505 275.722 124.063 275.578 124.567 275.29C125.083 274.99 125.491 274.564 125.791 274.012C126.091 273.448 126.241 272.794 126.241 272.05ZM135.471 266.956C136.671 266.956 137.643 267.322 138.387 268.054C139.131 268.774 139.503 269.818 139.503 271.186V277H137.883V271.42C137.883 270.436 137.637 269.686 137.145 269.17C136.653 268.642 135.981 268.378 135.129 268.378C134.265 268.378 133.575 268.648 133.059 269.188C132.555 269.728 132.303 270.514 132.303 271.546V277H130.665V267.136H132.303V268.54C132.627 268.036 133.065 267.646 133.617 267.37C134.181 267.094 134.799 266.956 135.471 266.956ZM141.567 272.032C141.567 271.024 141.771 270.142 142.179 269.386C142.587 268.618 143.145 268.024 143.853 267.604C144.573 267.184 145.377 266.974 146.265 266.974C147.033 266.974 147.747 267.154 148.407 267.514C149.067 267.862 149.571 268.324 149.919 268.9V263.68H151.575V277H149.919V275.146C149.595 275.734 149.115 276.22 148.479 276.604C147.843 276.976 147.099 277.162 146.247 277.162C145.371 277.162 144.573 276.946 143.853 276.514C143.145 276.082 142.587 275.476 142.179 274.696C141.771 273.916 141.567 273.028 141.567 272.032ZM149.919 272.05C149.919 271.306 149.769 270.658 149.469 270.106C149.169 269.554 148.761 269.134 148.245 268.846C147.741 268.546 147.183 268.396 146.571 268.396C145.959 268.396 145.401 268.54 144.897 268.828C144.393 269.116 143.991 269.536 143.691 270.088C143.391 270.64 143.241 271.288 143.241 272.032C143.241 272.788 143.391 273.448 143.691 274.012C143.991 274.564 144.393 274.99 144.897 275.29C145.401 275.578 145.959 275.722 146.571 275.722C147.183 275.722 147.741 275.578 148.245 275.29C148.761 274.99 149.169 274.564 149.469 274.012C149.769 273.448 149.919 272.794 149.919 272.05ZM167.89 267.136V277H166.252V275.542C165.94 276.046 165.502 276.442 164.938 276.73C164.386 277.006 163.774 277.144 163.102 277.144C162.334 277.144 161.644 276.988 161.032 276.676C160.42 276.352 159.934 275.872 159.574 275.236C159.226 274.6 159.052 273.826 159.052 272.914V267.136H160.672V272.698C160.672 273.67 160.918 274.42 161.41 274.948C161.902 275.464 162.574 275.722 163.426 275.722C164.302 275.722 164.992 275.452 165.496 274.912C166 274.372 166.252 273.586 166.252 272.554V267.136H167.89ZM172.294 268.954C172.618 268.39 173.098 267.922 173.734 267.55C174.382 267.166 175.132 266.974 175.984 266.974C176.86 266.974 177.652 267.184 178.36 267.604C179.08 268.024 179.644 268.618 180.052 269.386C180.46 270.142 180.664 271.024 180.664 272.032C180.664 273.028 180.46 273.916 180.052 274.696C179.644 275.476 179.08 276.082 178.36 276.514C177.652 276.946 176.86 277.162 175.984 277.162C175.144 277.162 174.4 276.976 173.752 276.604C173.116 276.22 172.63 275.746 172.294 275.182V281.68H170.656V267.136H172.294V268.954ZM178.99 272.032C178.99 271.288 178.84 270.64 178.54 270.088C178.24 269.536 177.832 269.116 177.316 268.828C176.812 268.54 176.254 268.396 175.642 268.396C175.042 268.396 174.484 268.546 173.968 268.846C173.464 269.134 173.056 269.56 172.744 270.124C172.444 270.676 172.294 271.318 172.294 272.05C172.294 272.794 172.444 273.448 172.744 274.012C173.056 274.564 173.464 274.99 173.968 275.29C174.484 275.578 175.042 275.722 175.642 275.722C176.254 275.722 176.812 275.578 177.316 275.29C177.832 274.99 178.24 274.564 178.54 274.012C178.84 273.448 178.99 272.788 178.99 272.032ZM182.208 272.032C182.208 271.024 182.412 270.142 182.82 269.386C183.228 268.618 183.786 268.024 184.494 267.604C185.214 267.184 186.018 266.974 186.906 266.974C187.674 266.974 188.388 267.154 189.048 267.514C189.708 267.862 190.212 268.324 190.56 268.9V263.68H192.216V277H190.56V275.146C190.236 275.734 189.756 276.22 189.12 276.604C188.484 276.976 187.74 277.162 186.888 277.162C186.012 277.162 185.214 276.946 184.494 276.514C183.786 276.082 183.228 275.476 182.82 274.696C182.412 273.916 182.208 273.028 182.208 272.032ZM190.56 272.05C190.56 271.306 190.41 270.658 190.11 270.106C189.81 269.554 189.402 269.134 188.886 268.846C188.382 268.546 187.824 268.396 187.212 268.396C186.6 268.396 186.042 268.54 185.538 268.828C185.034 269.116 184.632 269.536 184.332 270.088C184.032 270.64 183.882 271.288 183.882 272.032C183.882 272.788 184.032 273.448 184.332 274.012C184.632 274.564 185.034 274.99 185.538 275.29C186.042 275.578 186.6 275.722 187.212 275.722C187.824 275.722 188.382 275.578 188.886 275.29C189.402 274.99 189.81 274.564 190.11 274.012C190.41 273.448 190.56 272.794 190.56 272.05ZM194.372 272.032C194.372 271.024 194.576 270.142 194.984 269.386C195.392 268.618 195.95 268.024 196.658 267.604C197.378 267.184 198.176 266.974 199.052 266.974C199.916 266.974 200.666 267.16 201.302 267.532C201.938 267.904 202.412 268.372 202.724 268.936V267.136H204.38V277H202.724V275.164C202.4 275.74 201.914 276.22 201.266 276.604C200.63 276.976 199.886 277.162 199.034 277.162C198.158 277.162 197.366 276.946 196.658 276.514C195.95 276.082 195.392 275.476 194.984 274.696C194.576 273.916 194.372 273.028 194.372 272.032ZM202.724 272.05C202.724 271.306 202.574 270.658 202.274 270.106C201.974 269.554 201.566 269.134 201.05 268.846C200.546 268.546 199.988 268.396 199.376 268.396C198.764 268.396 198.206 268.54 197.702 268.828C197.198 269.116 196.796 269.536 196.496 270.088C196.196 270.64 196.046 271.288 196.046 272.032C196.046 272.788 196.196 273.448 196.496 274.012C196.796 274.564 197.198 274.99 197.702 275.29C198.206 275.578 198.764 275.722 199.376 275.722C199.988 275.722 200.546 275.578 201.05 275.29C201.566 274.99 201.974 274.564 202.274 274.012C202.574 273.448 202.724 272.794 202.724 272.05ZM209.146 268.486V274.3C209.146 274.78 209.248 275.122 209.452 275.326C209.656 275.518 210.01 275.614 210.514 275.614H211.72V277H210.244C209.332 277 208.648 276.79 208.192 276.37C207.736 275.95 207.508 275.26 207.508 274.3V268.486H206.23V267.136H207.508V264.652H209.146V267.136H211.72V268.486H209.146ZM222.704 271.69C222.704 272.002 222.686 272.332 222.65 272.68H214.766C214.826 273.652 215.156 274.414 215.756 274.966C216.368 275.506 217.106 275.776 217.97 275.776C218.678 275.776 219.266 275.614 219.734 275.29C220.214 274.954 220.55 274.51 220.742 273.958H222.506C222.242 274.906 221.714 275.68 220.922 276.28C220.13 276.868 219.146 277.162 217.97 277.162C217.034 277.162 216.194 276.952 215.45 276.532C214.718 276.112 214.142 275.518 213.722 274.75C213.302 273.97 213.092 273.07 213.092 272.05C213.092 271.03 213.296 270.136 213.704 269.368C214.112 268.6 214.682 268.012 215.414 267.604C216.158 267.184 217.01 266.974 217.97 266.974C218.906 266.974 219.734 267.178 220.454 267.586C221.174 267.994 221.726 268.558 222.11 269.278C222.506 269.986 222.704 270.79 222.704 271.69ZM221.012 271.348C221.012 270.724 220.874 270.19 220.598 269.746C220.322 269.29 219.944 268.948 219.464 268.72C218.996 268.48 218.474 268.36 217.898 268.36C217.07 268.36 216.362 268.624 215.774 269.152C215.198 269.68 214.868 270.412 214.784 271.348H221.012ZM228.358 277.162C227.602 277.162 226.924 277.036 226.324 276.784C225.724 276.52 225.25 276.16 224.902 275.704C224.554 275.236 224.362 274.702 224.326 274.102H226.018C226.066 274.594 226.294 274.996 226.702 275.308C227.122 275.62 227.668 275.776 228.34 275.776C228.964 275.776 229.456 275.638 229.816 275.362C230.176 275.086 230.356 274.738 230.356 274.318C230.356 273.886 230.164 273.568 229.78 273.364C229.396 273.148 228.802 272.938 227.998 272.734C227.266 272.542 226.666 272.35 226.198 272.158C225.742 271.954 225.346 271.66 225.01 271.276C224.686 270.88 224.524 270.364 224.524 269.728C224.524 269.224 224.674 268.762 224.974 268.342C225.274 267.922 225.7 267.592 226.252 267.352C226.804 267.1 227.434 266.974 228.142 266.974C229.234 266.974 230.116 267.25 230.788 267.802C231.46 268.354 231.82 269.11 231.868 270.07H230.23C230.194 269.554 229.984 269.14 229.6 268.828C229.228 268.516 228.724 268.36 228.088 268.36C227.5 268.36 227.032 268.486 226.684 268.738C226.336 268.99 226.162 269.32 226.162 269.728C226.162 270.052 226.264 270.322 226.468 270.538C226.684 270.742 226.948 270.91 227.26 271.042C227.584 271.162 228.028 271.3 228.592 271.456C229.3 271.648 229.876 271.84 230.32 272.032C230.764 272.212 231.142 272.488 231.454 272.86C231.778 273.232 231.946 273.718 231.958 274.318C231.958 274.858 231.808 275.344 231.508 275.776C231.208 276.208 230.782 276.55 230.23 276.802C229.69 277.042 229.066 277.162 228.358 277.162Z" fill="#0C3D57"/>
</g>
<defs>
<filter id="filter0_d_1_6202" x="0" y="0" width="390" height="437" filterUnits="userSpaceOnUse" color-interpolation-filters="sRGB">
<feFlood flood-opacity="0" result="BackgroundImageFix"/>
<feColorMatrix in="SourceAlpha" type="matrix" values="0 0 0 0 0 0 0 0 0 0 0 0 0 0 0 0 0 0 127 0" result="hardAlpha"/>
<feOffset dx="20" dy="20"/>
<feGaussianBlur stdDeviation="50"/>
<feComposite in2="hardAlpha" operator="out"/>
<feColorMatrix type="matrix" values="0 0 0 0 0.0282639 0 0 0 0 0.210031 0 0 0 0 0.308333 0 0 0 0.04 0"/>
<feBlend mode="normal" in2="BackgroundImageFix" result="effect1_dropShadow_1_6202"/>
<feBlend mode="normal" in="SourceGraphic" in2="effect1_dropShadow_1_6202" result="shape"/>
</filter>
</defs>
</svg>
