<svg width="176" height="54" viewBox="0 0 176 54" fill="none" xmlns="http://www.w3.org/2000/svg">
<rect width="176" height="54" rx="6.48137" fill="white" fill-opacity="0.3"/>
<g clip-path="url(#clip0_1_6047)">
<path d="M27 15.6132V38.6753C27.0002 38.7254 27.0151 38.7742 27.0429 38.8158C27.0707 38.8574 27.1102 38.8899 27.1564 38.9091C27.2026 38.9283 27.2534 38.9335 27.3025 38.924C27.3517 38.9144 27.3969 38.8906 27.4325 38.8555L39.4407 27.1448L27.4325 15.433C27.3969 15.3979 27.3517 15.3741 27.3025 15.3645C27.2534 15.355 27.2026 15.3602 27.1564 15.3794C27.1102 15.3986 27.0707 15.4311 27.0429 15.4727C27.0151 15.5143 27.0002 15.5631 27 15.6132Z" fill="white"/>
<path d="M44.4756 22.3331L29.4189 14.0377L29.4095 14.0325C29.1501 13.8916 28.9036 14.2425 29.1161 14.4467L40.9188 25.7325L44.4756 22.3331Z" fill="white"/>
<path d="M29.1171 39.8432C28.9035 40.0474 29.15 40.3984 29.4106 40.2575L29.4199 40.2522L44.4755 31.9569L40.9187 28.5563L29.1171 39.8432Z" fill="white"/>
<path d="M50.554 25.6778L46.3494 23.3622L42.3959 27.1448L46.3494 30.9257L50.554 28.6119C51.6977 27.9799 51.6977 26.3098 50.554 25.6778Z" fill="white"/>
</g>
<path fill-rule="evenodd" clip-rule="evenodd" d="M129.513 38.8374H131.529V25.3335H129.513V38.8374ZM147.668 30.1978L145.358 36.0526H145.289L142.891 30.1978H140.719L144.315 38.3805L142.265 42.9326H144.368L149.91 30.1978H147.668ZM136.237 37.3035C135.576 37.3035 134.656 36.974 134.656 36.1574C134.656 35.115 135.803 34.7153 136.793 34.7153C137.68 34.7153 138.095 34.9065 138.634 35.1668C138.478 36.4177 137.401 37.3035 136.237 37.3035ZM136.48 29.9028C135.021 29.9028 133.51 30.5456 132.884 31.9704L134.673 32.7168C135.056 31.9704 135.768 31.7263 136.515 31.7263C137.557 31.7263 138.617 32.3517 138.634 33.4644V33.6026C138.269 33.3941 137.488 33.082 136.532 33.082C134.604 33.082 132.64 34.1417 132.64 36.1217C132.64 37.929 134.222 39.0934 135.993 39.0934C137.349 39.0934 138.095 38.4853 138.565 37.7723H138.634V38.8147H140.58V33.6383C140.58 31.2402 138.791 29.9028 136.48 29.9028ZM124.023 31.8419H121.156V27.2131H124.023C125.53 27.2131 126.386 28.4607 126.386 29.5269C126.386 30.5737 125.53 31.8419 124.023 31.8419ZM123.971 25.3335H119.142V38.8374H121.156V33.7215H123.971C126.205 33.7215 128.401 32.1033 128.401 29.5269C128.401 26.9506 126.205 25.3335 123.971 25.3335ZM97.6343 37.3057C96.2419 37.3057 95.0764 36.1401 95.0764 34.5392C95.0764 32.921 96.2419 31.7371 97.6343 31.7371C99.0095 31.7371 100.088 32.921 100.088 34.5392C100.088 36.1401 99.0095 37.3057 97.6343 37.3057ZM99.9482 30.9539H99.8791C99.4264 30.4149 98.5569 29.9277 97.4604 29.9277C95.1628 29.9277 93.0574 31.9456 93.0574 34.5392C93.0574 37.1145 95.1628 39.1161 97.4604 39.1161C98.5569 39.1161 99.4264 38.6289 99.8791 38.0715H99.9482V38.7326C99.9482 40.4913 99.0095 41.4311 97.495 41.4311C96.2592 41.4311 95.4933 40.5431 95.1801 39.7945L93.4225 40.5258C93.927 41.7443 95.2676 43.2404 97.495 43.2404C99.8618 43.2404 101.863 41.848 101.863 38.455V30.2053H99.9482V30.9539ZM103.256 38.8374H105.275V25.3324H103.256V38.8374ZM108.25 34.3826C108.198 32.6077 109.625 31.7025 110.651 31.7025C111.453 31.7025 112.131 32.1022 112.357 32.6769L108.25 34.3826ZM114.515 32.8508C114.133 31.8246 112.966 29.9277 110.582 29.9277C108.215 29.9277 106.249 31.7889 106.249 34.5219C106.249 37.0972 108.198 39.1161 110.808 39.1161C112.914 39.1161 114.133 37.8285 114.637 37.0799L113.071 36.0353C112.549 36.8012 111.835 37.3057 110.808 37.3057C109.782 37.3057 109.05 36.8358 108.58 35.9143L114.724 33.3736L114.515 32.8508ZM65.5721 31.3374V33.2861H70.2354C70.0961 34.3826 69.7309 35.183 69.1746 35.7404C68.4952 36.4188 67.4333 37.1663 65.5721 37.1663C62.7008 37.1663 60.455 34.8525 60.455 31.9812C60.455 29.1089 62.7008 26.795 65.5721 26.795C67.1211 26.795 68.2521 27.4043 69.0871 28.1874L70.4623 26.8123C69.2956 25.6986 67.7476 24.8452 65.5721 24.8452C61.6389 24.8452 58.3324 28.0481 58.3324 31.9812C58.3324 35.9143 61.6389 39.1161 65.5721 39.1161C67.6947 39.1161 69.2956 38.4205 70.5487 37.1145C71.8363 35.8268 72.2371 34.0174 72.2371 32.5548C72.2371 32.1022 72.2025 31.6852 72.1323 31.3374H65.5721ZM77.5399 37.3057C76.1475 37.3057 74.9463 36.1574 74.9463 34.5219C74.9463 32.8681 76.1475 31.7371 77.5399 31.7371C78.9313 31.7371 80.1325 32.8681 80.1325 34.5219C80.1325 36.1574 78.9313 37.3057 77.5399 37.3057ZM77.5399 29.9277C74.9981 29.9277 72.9273 31.8591 72.9273 34.5219C72.9273 37.1663 74.9981 39.1161 77.5399 39.1161C80.0806 39.1161 82.1514 37.1663 82.1514 34.5219C82.1514 31.8591 80.0806 29.9277 77.5399 29.9277ZM87.6001 37.3057C86.2077 37.3057 85.0065 36.1574 85.0065 34.5219C85.0065 32.8681 86.2077 31.7371 87.6001 31.7371C88.9925 31.7371 90.1926 32.8681 90.1926 34.5219C90.1926 36.1574 88.9925 37.3057 87.6001 37.3057ZM87.6001 29.9277C85.0594 29.9277 82.9886 31.8591 82.9886 34.5219C82.9886 37.1663 85.0594 39.1161 87.6001 39.1161C90.1408 39.1161 92.2116 37.1663 92.2116 34.5219C92.2116 31.8591 90.1408 29.9277 87.6001 29.9277Z" fill="#FFFFFE"/>
<path d="M64.2425 16.3606V18.8908C64.1571 19.0174 64.021 19.1598 63.8343 19.318C63.6476 19.4731 63.3896 19.6092 63.0605 19.7263C62.7345 19.8402 62.3136 19.8972 61.7978 19.8972C61.3769 19.8972 60.9892 19.8244 60.6347 19.6788C60.2835 19.5301 59.9781 19.3149 59.7186 19.0332C59.4622 18.7484 59.2628 18.4034 59.1204 17.9983C58.9812 17.5901 58.9115 17.128 58.9115 16.6122V16.0758C58.9115 15.5599 58.9717 15.0995 59.0919 14.6944C59.2154 14.2893 59.3957 13.9459 59.6331 13.6642C59.8705 13.3794 60.1616 13.1642 60.5066 13.0186C60.8515 12.8699 61.2471 12.7955 61.6933 12.7955C62.2219 12.7955 62.6633 12.8873 63.0178 13.0709C63.3754 13.2512 63.6539 13.5013 63.8533 13.8209C64.0558 14.1405 64.1856 14.5045 64.2425 14.9127H63.3263C63.2852 14.6627 63.2029 14.4349 63.0795 14.2291C62.9592 14.0234 62.7868 13.8589 62.5621 13.7355C62.3374 13.6089 62.0478 13.5456 61.6933 13.5456C61.3737 13.5456 61.0968 13.6041 60.8626 13.7212C60.6284 13.8383 60.4354 14.006 60.2835 14.2244C60.1315 14.4428 60.0176 14.707 59.9417 15.0172C59.8689 15.3273 59.8325 15.677 59.8325 16.0663V16.6122C59.8325 17.011 59.8784 17.367 59.9701 17.6803C60.0651 17.9936 60.1996 18.261 60.3737 18.4826C60.5477 18.7009 60.755 18.8671 60.9955 18.981C61.2392 19.0949 61.5082 19.1519 61.8025 19.1519C62.1285 19.1519 62.3928 19.125 62.5953 19.0712C62.7978 19.0142 62.9561 18.9478 63.07 18.8718C63.1839 18.7927 63.271 18.7183 63.3311 18.6487V17.1011H61.7313V16.3606H64.2425ZM69.861 19.057V19.8022H66.201V19.057H69.861ZM66.3861 12.8905V19.8022H65.4699V12.8905H66.3861ZM69.3768 15.8622V16.6074H66.201V15.8622H69.3768ZM69.8135 12.8905V13.6405H66.201V12.8905H69.8135ZM73.3528 12.8905V19.8022H72.4508V12.8905H73.3528ZM75.5744 12.8905V13.6405H70.2339V12.8905H75.5744ZM79.2208 12.8905V19.8022H78.3046V12.8905H79.2208ZM83.0069 12.8905V19.8022H82.1049V12.8905H83.0069ZM85.2285 12.8905V13.6405H79.888V12.8905H85.2285ZM93.2137 16.128V16.5647C93.2137 17.0837 93.1488 17.549 93.0191 17.9604C92.8893 18.3718 92.7026 18.7215 92.4589 19.0095C92.2152 19.2975 91.9225 19.5174 91.5807 19.6693C91.2421 19.8212 90.8623 19.8972 90.4414 19.8972C90.0332 19.8972 89.6581 19.8212 89.3163 19.6693C88.9777 19.5174 88.6834 19.2975 88.4334 19.0095C88.1865 18.7215 87.9951 18.3718 87.859 17.9604C87.7229 17.549 87.6549 17.0837 87.6549 16.5647V16.128C87.6549 15.609 87.7213 15.1453 87.8542 14.7371C87.9903 14.3257 88.1818 13.976 88.4286 13.688C88.6755 13.3968 88.9682 13.1753 89.3069 13.0234C89.6486 12.8715 90.0237 12.7955 90.4319 12.7955C90.8528 12.7955 91.2326 12.8715 91.5712 13.0234C91.913 13.1753 92.2057 13.3968 92.4494 13.688C92.6963 13.976 92.8846 14.3257 93.0143 14.7371C93.1473 15.1453 93.2137 15.609 93.2137 16.128ZM92.307 16.5647V16.1185C92.307 15.7071 92.2643 15.3431 92.1788 15.0267C92.0966 14.7102 91.9747 14.4444 91.8133 14.2291C91.6519 14.0139 91.4541 13.851 91.2199 13.7402C90.9889 13.6294 90.7262 13.5741 90.4319 13.5741C90.1471 13.5741 89.8892 13.6294 89.6581 13.7402C89.4303 13.851 89.2341 14.0139 89.0695 14.2291C88.9081 14.4444 88.7831 14.7102 88.6945 15.0267C88.6059 15.3431 88.5616 15.7071 88.5616 16.1185V16.5647C88.5616 16.9793 88.6059 17.3464 88.6945 17.6661C88.7831 17.9825 88.9097 18.2499 89.0742 18.4683C89.242 18.6835 89.4398 18.8465 89.6676 18.9573C89.8987 19.068 90.1566 19.1234 90.4414 19.1234C90.7389 19.1234 91.0031 19.068 91.2342 18.9573C91.4652 18.8465 91.6598 18.6835 91.8181 18.4683C91.9795 18.2499 92.1013 17.9825 92.1836 17.6661C92.2659 17.3464 92.307 16.9793 92.307 16.5647ZM99.6107 12.8905V19.8022H98.6898L95.2102 14.4713V19.8022H94.294V12.8905H95.2102L98.704 18.2357V12.8905H99.6107Z" fill="white"/>
<defs>
<clipPath id="clip0_1_6047">
<rect width="27.76" height="27.76" fill="white" transform="translate(25 13)"/>
</clipPath>
</defs>
</svg>
